<svg width="1078" height="767" viewBox="0 0 1078 767" fill="none" xmlns="http://www.w3.org/2000/svg">
<path d="M1078 300C1078 419.818 1038.9 530.505 972.773 620C874.605 752.849 749.363 766.945 571.5 766.945C440.496 766.945 257.408 739.709 164 662C45.1558 563.13 0 466.678 0 300C0 157.728 229.675 349.331 319.727 253C418.096 147.773 496.176 80.3608 642.5 28C744.5 -8.49996 931 -34 1034 117C1070.94 171.161 1078 230.473 1078 300Z" fill="#8FC2C1"/>
<g clip-path="url(#clip0_11_532)">
<path d="M44.3198 571.474C44.3233 566.924 46.1333 562.561 49.3521 559.345C52.5708 556.129 56.9349 554.322 61.4852 554.322C66.0355 554.322 70.3995 556.129 73.6183 559.345C76.837 562.561 78.6471 566.924 78.6505 571.474" fill="#F2F2F2"/>
<path d="M61.4852 571.474C61.3621 571.474 61.2441 571.425 61.1572 571.338C61.0702 571.251 61.0213 571.133 61.0212 571.01V561.964C61.0212 561.841 61.0701 561.723 61.1571 561.636C61.2441 561.549 61.3621 561.5 61.4852 561.5C61.6082 561.5 61.7262 561.549 61.8132 561.636C61.9002 561.723 61.9491 561.841 61.9491 561.964V571.01C61.9491 571.133 61.9002 571.251 61.8132 571.338C61.7262 571.425 61.6082 571.474 61.4852 571.474Z" fill="#CCCCCC"/>
<path d="M61.485 568.366C61.3742 568.366 61.267 568.326 61.183 568.254L55.616 563.476C55.5691 563.436 55.5305 563.388 55.5025 563.333C55.4745 563.279 55.4575 563.219 55.4526 563.158C55.4476 563.097 55.4548 563.036 55.4738 562.977C55.4927 562.919 55.523 562.865 55.563 562.819C55.6029 562.772 55.6516 562.734 55.7063 562.707C55.761 562.679 55.8207 562.663 55.8818 562.658C55.9429 562.654 56.0043 562.662 56.0624 562.681C56.1205 562.7 56.1741 562.731 56.2203 562.772L61.7874 567.55C61.8594 567.611 61.9106 567.694 61.9344 567.786C61.9582 567.877 61.9532 567.974 61.9203 568.063C61.8874 568.152 61.828 568.229 61.7502 568.283C61.6723 568.337 61.5798 568.366 61.485 568.366Z" fill="#CCCCCC"/>
<path d="M97.2078 571.474C97.2112 566.924 99.0213 562.561 102.24 559.345C105.459 556.129 109.823 554.322 114.373 554.322C118.923 554.322 123.287 556.129 126.506 559.345C129.725 562.561 131.535 566.924 131.538 571.474" fill="#F2F2F2"/>
<path d="M114.373 571.474C114.25 571.474 114.132 571.425 114.045 571.338C113.958 571.251 113.909 571.133 113.909 571.01V561.964C113.909 561.841 113.958 561.723 114.045 561.636C114.132 561.549 114.25 561.5 114.373 561.5C114.496 561.5 114.614 561.549 114.701 561.636C114.788 561.723 114.837 561.841 114.837 561.964V571.01C114.837 571.133 114.788 571.251 114.701 571.338C114.614 571.425 114.496 571.474 114.373 571.474Z" fill="#CCCCCC"/>
<path d="M114.373 568.366C114.262 568.366 114.155 568.326 114.071 568.254L108.504 563.476C108.457 563.436 108.418 563.388 108.39 563.333C108.362 563.279 108.345 563.219 108.34 563.158C108.335 563.097 108.342 563.036 108.361 562.977C108.38 562.919 108.41 562.865 108.45 562.818C108.49 562.772 108.539 562.734 108.594 562.706C108.649 562.679 108.708 562.662 108.769 562.658C108.831 562.654 108.892 562.661 108.95 562.681C109.008 562.7 109.062 562.731 109.108 562.772L114.675 567.55C114.747 567.611 114.798 567.694 114.822 567.786C114.846 567.877 114.841 567.974 114.808 568.063C114.775 568.152 114.716 568.229 114.638 568.283C114.56 568.337 114.468 568.366 114.373 568.366Z" fill="#CCCCCC"/>
<path d="M799.795 243.309C818.021 243.309 832.795 228.534 832.795 210.309C832.795 192.083 818.021 177.309 799.795 177.309C781.57 177.309 766.795 192.083 766.795 210.309C766.795 228.534 781.57 243.309 799.795 243.309Z" fill="#F2F2F2"/>
<path d="M123.795 608.309C140.364 608.309 153.795 605.175 153.795 601.309C153.795 597.443 140.364 594.309 123.795 594.309C107.227 594.309 93.7953 597.443 93.7953 601.309C93.7953 605.175 107.227 608.309 123.795 608.309Z" fill="#F2F2F2"/>
<path d="M108.481 313.962C116.349 289.394 135.561 270.34 158.345 259.007C185.378 245.561 216.442 244.039 245.794 249.272C277.48 254.921 307.094 267.944 335.76 282.156C363.877 296.096 391.54 310.816 420.78 322.336C479.157 345.302 541.031 358.118 603.727 360.232C660.158 362.114 720.494 355.931 768.812 324.214C813.084 295.152 841.256 247.208 855.929 197.232C857.807 190.834 859.477 184.381 860.938 177.873C861.365 175.993 858.473 175.19 858.045 177.075C846.21 229.263 820.971 280.842 777.848 314.109C731.207 350.089 669.994 358.407 612.711 357.455C549.329 356.348 486.621 344.247 427.379 321.691C397.386 310.273 369.083 295.446 340.42 281.131C312.385 267.131 283.564 254.026 252.737 247.569C224.587 241.673 194.449 241.314 167.309 251.806C144.961 260.445 124.584 275.843 112.659 296.908C109.752 302.071 107.382 307.518 105.588 313.165C104.998 315.008 107.894 315.797 108.481 313.962Z" fill="#F2F2F2"/>
<path d="M536.783 543.679C537.049 543.679 537.303 543.574 537.491 543.386C537.678 543.199 537.783 542.944 537.783 542.679C537.783 542.414 537.678 542.159 537.491 541.972C537.303 541.784 537.049 541.679 536.783 541.679H527.283V537.679H536.783C537.049 537.679 537.303 537.574 537.491 537.386C537.678 537.199 537.783 536.944 537.783 536.679C537.783 536.414 537.678 536.159 537.491 535.972C537.303 535.784 537.049 535.679 536.783 535.679H455.783C455.518 535.679 455.264 535.784 455.076 535.972C454.889 536.159 454.783 536.414 454.783 536.679C454.783 536.944 454.889 537.199 455.076 537.386C455.264 537.574 455.518 537.679 455.783 537.679H465.283V541.679H455.783C455.518 541.679 455.264 541.784 455.076 541.972C454.889 542.159 454.783 542.414 454.783 542.679C454.783 542.944 454.889 543.199 455.076 543.386C455.264 543.574 455.518 543.679 455.783 543.679H465.283V547.679H455.783C455.518 547.679 455.264 547.784 455.076 547.972C454.889 548.159 454.783 548.414 454.783 548.679C454.783 548.944 454.889 549.199 455.076 549.386C455.264 549.574 455.518 549.679 455.783 549.679H465.283V553.679H456.783C456.253 553.679 455.744 553.89 455.369 554.265C454.994 554.64 454.783 555.149 454.783 555.679C454.783 556.209 454.994 556.718 455.369 557.093C455.744 557.468 456.253 557.679 456.783 557.679H464.875C464.816 557.839 464.785 558.008 464.783 558.179V572.179C464.783 572.577 464.942 572.958 465.223 573.24C465.504 573.521 465.886 573.679 466.283 573.679C466.681 573.679 467.063 573.521 467.344 573.24C467.625 572.958 467.783 572.577 467.783 572.179V558.179C467.782 558.008 467.751 557.839 467.692 557.679H524.875C524.816 557.839 524.785 558.008 524.783 558.179V572.179C524.783 572.577 524.942 572.958 525.223 573.24C525.504 573.521 525.886 573.679 526.283 573.679C526.681 573.679 527.063 573.521 527.344 573.24C527.625 572.958 527.783 572.577 527.783 572.179V558.179C527.782 558.008 527.751 557.839 527.692 557.679H535.783C536.314 557.679 536.823 557.468 537.198 557.093C537.573 556.718 537.783 556.209 537.783 555.679C537.783 555.149 537.573 554.64 537.198 554.265C536.823 553.89 536.314 553.679 535.783 553.679H527.283V549.679H536.783C537.049 549.679 537.303 549.574 537.491 549.386C537.678 549.199 537.783 548.944 537.783 548.679C537.783 548.414 537.678 548.159 537.491 547.972C537.303 547.784 537.049 547.679 536.783 547.679H527.283V543.679H536.783ZM467.283 537.679H525.283V541.679H467.283V537.679ZM525.283 553.679H467.283V549.679H525.283V553.679ZM525.283 547.679H467.283V543.679H525.283V547.679Z" fill="#3F3D56"/>
<path d="M231.795 501.707C231.795 484.046 217.468 442.137 199.795 442.137C182.122 442.137 167.795 484.046 167.795 501.707C167.795 510.194 171.167 518.334 177.168 524.335C183.169 530.336 191.308 533.707 199.795 533.707C208.282 533.707 216.422 530.336 222.423 524.335C228.424 518.334 231.795 510.194 231.795 501.707Z" fill="#E6E6E6"/>
<path d="M223.795 501.707C223.795 484.046 209.468 442.137 191.795 442.137C174.122 442.137 159.795 484.046 159.795 501.707C159.795 510.194 163.167 518.334 169.168 524.335C175.169 530.336 183.308 533.707 191.795 533.707C200.282 533.707 208.422 530.336 214.423 524.335C220.424 518.334 223.795 510.194 223.795 501.707Z" fill="#F2F2F2"/>
<path d="M192.795 573.258C192.53 573.258 192.276 573.152 192.088 572.965C191.901 572.777 191.795 572.523 191.795 572.258V483.117C191.795 482.852 191.901 482.598 192.088 482.41C192.276 482.223 192.53 482.117 192.795 482.117C193.061 482.117 193.315 482.223 193.502 482.41C193.69 482.598 193.795 482.852 193.795 483.117V572.258C193.795 572.523 193.69 572.777 193.502 572.965C193.315 573.152 193.061 573.258 192.795 573.258Z" fill="#CCCCCC"/>
<path d="M192.795 497.73C192.598 497.73 192.404 497.672 192.24 497.562C192.075 497.452 191.947 497.296 191.872 497.113C191.796 496.93 191.776 496.729 191.815 496.535C191.853 496.341 191.949 496.163 192.088 496.023L205.166 482.945C205.353 482.758 205.608 482.652 205.873 482.652C206.138 482.652 206.393 482.758 206.58 482.945C206.768 483.133 206.873 483.387 206.873 483.652C206.873 483.917 206.768 484.172 206.58 484.359L193.502 497.437C193.41 497.53 193.299 497.604 193.178 497.654C193.057 497.705 192.927 497.731 192.795 497.73Z" fill="#CCCCCC"/>
<path d="M560.795 573.258C560.53 573.258 560.276 573.152 560.088 572.965C559.901 572.777 559.795 572.523 559.795 572.258V483.117C559.795 482.852 559.901 482.598 560.088 482.41C560.276 482.223 560.53 482.117 560.795 482.117C561.061 482.117 561.315 482.223 561.502 482.41C561.69 482.598 561.795 482.852 561.795 483.117V572.258C561.795 572.523 561.69 572.777 561.502 572.965C561.315 573.152 561.061 573.258 560.795 573.258Z" fill="#3F3D56"/>
<path d="M667.795 501.707C667.795 484.046 653.468 442.137 635.795 442.137C618.122 442.137 603.795 484.046 603.795 501.707C603.795 510.194 607.167 518.334 613.168 524.335C619.169 530.336 627.308 533.707 635.795 533.707C644.282 533.707 652.422 530.336 658.423 524.335C664.424 518.334 667.795 510.194 667.795 501.707Z" fill="#E6E6E6"/>
<path d="M659.795 501.707C659.795 484.046 645.468 442.137 627.795 442.137C610.122 442.137 595.795 484.046 595.795 501.707C595.795 510.194 599.167 518.334 605.168 524.335C611.169 530.336 619.308 533.707 627.795 533.707C636.282 533.707 644.422 530.336 650.423 524.335C656.424 518.334 659.795 510.194 659.795 501.707Z" fill="#F2F2F2"/>
<path d="M628.795 573.258C628.53 573.258 628.276 573.152 628.088 572.965C627.901 572.777 627.795 572.523 627.795 572.258V483.117C627.795 482.852 627.901 482.598 628.088 482.41C628.276 482.223 628.53 482.117 628.795 482.117C629.061 482.117 629.315 482.223 629.502 482.41C629.69 482.598 629.795 482.852 629.795 483.117V572.258C629.795 572.523 629.69 572.777 629.502 572.965C629.315 573.152 629.061 573.258 628.795 573.258Z" fill="#CCCCCC"/>
<path d="M628.795 497.73C628.598 497.73 628.404 497.672 628.24 497.562C628.075 497.452 627.947 497.296 627.872 497.113C627.796 496.93 627.776 496.729 627.815 496.535C627.853 496.341 627.948 496.163 628.088 496.023L641.166 482.945C641.353 482.758 641.608 482.652 641.873 482.652C642.138 482.652 642.392 482.758 642.58 482.945C642.767 483.133 642.873 483.387 642.873 483.652C642.873 483.917 642.767 484.172 642.58 484.359L629.502 497.437C629.41 497.53 629.299 497.604 629.178 497.654C629.057 497.705 628.927 497.731 628.795 497.73Z" fill="#CCCCCC"/>
<path d="M298.795 227.809H282.795C281.602 227.808 280.458 227.333 279.615 226.489C278.771 225.646 278.297 224.502 278.295 223.309V186.309C278.297 185.116 278.771 183.972 279.615 183.128C280.458 182.285 281.602 181.81 282.795 181.809H298.795C299.988 181.81 301.132 182.285 301.976 183.128C302.819 183.972 303.294 185.116 303.295 186.309V223.309C303.294 224.502 302.819 225.646 301.976 226.489C301.132 227.333 299.988 227.808 298.795 227.809Z" fill="#E6E6E6"/>
<path d="M361.795 572.809H279.795C277.542 572.806 275.381 571.91 273.788 570.316C272.194 568.723 271.298 566.562 271.295 564.309V233.309C271.298 231.055 272.194 228.895 273.788 227.301C275.381 225.708 277.542 224.811 279.795 224.809H361.795C364.049 224.811 366.209 225.708 367.803 227.301C369.396 228.895 370.293 231.055 370.295 233.309V564.309C370.293 566.562 369.396 568.723 367.803 570.316C366.209 571.91 364.049 572.806 361.795 572.809Z" fill="#E6E6E6"/>
<path d="M312.795 572.809H230.795C228.542 572.806 226.381 571.91 224.788 570.316C223.194 568.723 222.298 566.562 222.295 564.309V233.309C222.298 231.055 223.194 228.895 224.788 227.301C226.381 225.708 228.542 224.811 230.795 224.809H312.795C315.049 224.811 317.209 225.708 318.803 227.301C320.396 228.895 321.293 231.055 321.295 233.309V564.309C321.293 566.562 320.396 568.723 318.803 570.316C317.209 571.91 315.049 572.806 312.795 572.809Z" fill="#F2F2F2"/>
<path d="M283.795 227.809H267.795C266.602 227.808 265.458 227.333 264.615 226.489C263.771 225.646 263.297 224.502 263.295 223.309V186.309C263.297 185.116 263.771 183.972 264.615 183.128C265.458 182.285 266.602 181.81 267.795 181.809H283.795C284.988 181.81 286.132 182.285 286.976 183.128C287.819 183.972 288.294 185.116 288.295 186.309V223.309C288.294 224.502 287.819 225.646 286.976 226.489C286.132 227.333 284.988 227.808 283.795 227.809Z" fill="#F2F2F2"/>
<path d="M262.795 299.809H243.795C243.132 299.808 242.497 299.544 242.028 299.076C241.56 298.607 241.296 297.972 241.295 297.309V268.309C241.296 267.646 241.56 267.011 242.028 266.542C242.497 266.073 243.132 265.81 243.795 265.809H262.795C263.458 265.81 264.094 266.073 264.562 266.542C265.031 267.011 265.295 267.646 265.295 268.309V297.309C265.295 297.972 265.031 298.607 264.562 299.076C264.094 299.544 263.458 299.808 262.795 299.809Z" fill="white"/>
<path d="M299.795 299.809H280.795C280.132 299.808 279.497 299.544 279.028 299.076C278.56 298.607 278.296 297.972 278.295 297.309V268.309C278.296 267.646 278.56 267.011 279.028 266.542C279.497 266.073 280.132 265.81 280.795 265.809H299.795C300.458 265.81 301.094 266.073 301.562 266.542C302.031 267.011 302.295 267.646 302.295 268.309V297.309C302.295 297.972 302.031 298.607 301.562 299.076C301.094 299.544 300.458 299.808 299.795 299.809Z" fill="white"/>
<path d="M262.795 352.809H243.795C243.132 352.808 242.497 352.544 242.028 352.076C241.56 351.607 241.296 350.972 241.295 350.309V321.309C241.296 320.646 241.56 320.011 242.028 319.542C242.497 319.073 243.132 318.81 243.795 318.809H262.795C263.458 318.81 264.094 319.073 264.562 319.542C265.031 320.011 265.295 320.646 265.295 321.309V350.309C265.295 350.972 265.031 351.607 264.562 352.076C264.094 352.544 263.458 352.808 262.795 352.809Z" fill="white"/>
<path d="M299.795 352.809H280.795C280.132 352.808 279.497 352.544 279.028 352.076C278.56 351.607 278.296 350.972 278.295 350.309V321.309C278.296 320.646 278.56 320.011 279.028 319.542C279.497 319.073 280.132 318.81 280.795 318.809H299.795C300.458 318.81 301.094 319.073 301.562 319.542C302.031 320.011 302.295 320.646 302.295 321.309V350.309C302.295 350.972 302.031 351.607 301.562 352.076C301.094 352.544 300.458 352.808 299.795 352.809Z" fill="white"/>
<path d="M262.795 405.809H243.795C243.132 405.808 242.497 405.544 242.028 405.076C241.56 404.607 241.296 403.972 241.295 403.309V374.309C241.296 373.646 241.56 373.011 242.028 372.542C242.497 372.073 243.132 371.81 243.795 371.809H262.795C263.458 371.81 264.094 372.073 264.562 372.542C265.031 373.011 265.295 373.646 265.295 374.309V403.309C265.295 403.972 265.031 404.607 264.562 405.076C264.094 405.544 263.458 405.808 262.795 405.809Z" fill="white"/>
<path d="M299.795 405.809H280.795C280.132 405.808 279.497 405.544 279.028 405.076C278.56 404.607 278.296 403.972 278.295 403.309V374.309C278.296 373.646 278.56 373.011 279.028 372.542C279.497 372.073 280.132 371.81 280.795 371.809H299.795C300.458 371.81 301.094 372.073 301.562 372.542C302.031 373.011 302.295 373.646 302.295 374.309V403.309C302.295 403.972 302.031 404.607 301.562 405.076C301.094 405.544 300.458 405.808 299.795 405.809Z" fill="white"/>
<path d="M262.795 458.809H243.795C243.132 458.808 242.497 458.544 242.028 458.076C241.56 457.607 241.296 456.972 241.295 456.309V427.309C241.296 426.646 241.56 426.011 242.028 425.542C242.497 425.073 243.132 424.81 243.795 424.809H262.795C263.458 424.81 264.094 425.073 264.562 425.542C265.031 426.011 265.295 426.646 265.295 427.309V456.309C265.295 456.972 265.031 457.607 264.562 458.076C264.094 458.544 263.458 458.808 262.795 458.809Z" fill="white"/>
<path d="M299.795 458.809H280.795C280.132 458.808 279.497 458.544 279.028 458.076C278.56 457.607 278.296 456.972 278.295 456.309V427.309C278.296 426.646 278.56 426.011 279.028 425.542C279.497 425.073 280.132 424.81 280.795 424.809H299.795C300.458 424.81 301.094 425.073 301.562 425.542C302.031 426.011 302.295 426.646 302.295 427.309V456.309C302.295 456.972 302.031 457.607 301.562 458.076C301.094 458.544 300.458 458.808 299.795 458.809Z" fill="white"/>
<path d="M262.795 511.809H243.795C243.132 511.808 242.497 511.544 242.028 511.076C241.56 510.607 241.296 509.972 241.295 509.309V480.309C241.296 479.646 241.56 479.011 242.028 478.542C242.497 478.073 243.132 477.81 243.795 477.809H262.795C263.458 477.81 264.094 478.073 264.562 478.542C265.031 479.011 265.295 479.646 265.295 480.309V509.309C265.295 509.972 265.031 510.607 264.562 511.076C264.094 511.544 263.458 511.808 262.795 511.809Z" fill="white"/>
<path d="M299.795 511.809H280.795C280.132 511.808 279.497 511.544 279.028 511.076C278.56 510.607 278.296 509.972 278.295 509.309V480.309C278.296 479.646 278.56 479.011 279.028 478.542C279.497 478.073 280.132 477.81 280.795 477.809H299.795C300.458 477.81 301.094 478.073 301.562 478.542C302.031 479.011 302.295 479.646 302.295 480.309V509.309C302.295 509.972 302.031 510.607 301.562 511.076C301.094 511.544 300.458 511.808 299.795 511.809Z" fill="white"/>
<path d="M711.795 402.809H695.795C694.602 402.807 693.458 402.333 692.615 401.489C691.771 400.646 691.297 399.502 691.295 398.309V377.309C691.297 376.116 691.771 374.972 692.615 374.128C693.458 373.285 694.602 372.81 695.795 372.809H711.795C712.988 372.81 714.132 373.285 714.976 374.128C715.819 374.972 716.294 376.116 716.295 377.309V398.309C716.294 399.502 715.819 400.646 714.976 401.489C714.132 402.333 712.988 402.807 711.795 402.809Z" fill="#E6E6E6"/>
<path d="M846.795 573.809H764.795C762.542 573.806 760.381 572.91 758.788 571.316C757.194 569.723 756.298 567.562 756.295 565.309V406.309C756.298 404.055 757.194 401.895 758.788 400.301C760.381 398.708 762.542 397.811 764.795 397.809H846.795C849.049 397.811 851.209 398.708 852.803 400.301C854.396 401.895 855.293 404.055 855.295 406.309V565.309C855.293 567.562 854.396 569.723 852.803 571.316C851.209 572.91 849.049 573.806 846.795 573.809Z" fill="#E6E6E6"/>
<path d="M797.795 573.809H655.795C653.542 573.806 651.381 572.91 649.788 571.316C648.194 569.723 647.298 567.562 647.295 565.309V406.309C647.298 404.055 648.194 401.895 649.788 400.301C651.381 398.708 653.542 397.811 655.795 397.809H797.795C800.049 397.811 802.209 398.708 803.803 400.301C805.396 401.895 806.293 404.055 806.295 406.309V565.309C806.293 567.562 805.396 569.723 803.803 571.316C802.209 572.91 800.049 573.806 797.795 573.809Z" fill="#F2F2F2"/>
<path d="M696.795 402.809H680.795C679.602 402.807 678.458 402.333 677.615 401.489C676.771 400.646 676.297 399.502 676.295 398.309V377.309C676.297 376.116 676.771 374.972 677.615 374.128C678.458 373.285 679.602 372.81 680.795 372.809H696.795C697.988 372.81 699.132 373.285 699.976 374.128C700.819 374.972 701.294 376.116 701.295 377.309V398.309C701.294 399.502 700.819 400.646 699.976 401.489C699.132 402.333 697.988 402.807 696.795 402.809Z" fill="#F2F2F2"/>
<path d="M717.795 476.309H698.795C698.132 476.308 697.497 476.044 697.028 475.576C696.56 475.107 696.296 474.472 696.295 473.809V444.809C696.296 444.146 696.56 443.511 697.028 443.042C697.497 442.573 698.132 442.31 698.795 442.309H717.795C718.458 442.31 719.094 442.573 719.562 443.042C720.031 443.511 720.295 444.146 720.295 444.809V473.809C720.295 474.472 720.031 475.107 719.562 475.576C719.094 476.044 718.458 476.308 717.795 476.309Z" fill="white"/>
<path d="M754.795 476.309H735.795C735.132 476.308 734.497 476.044 734.028 475.576C733.56 475.107 733.296 474.472 733.295 473.809V444.809C733.296 444.146 733.56 443.511 734.028 443.042C734.497 442.573 735.132 442.31 735.795 442.309H754.795C755.458 442.31 756.094 442.573 756.562 443.042C757.031 443.511 757.295 444.146 757.295 444.809V473.809C757.295 474.472 757.031 475.107 756.562 475.576C756.094 476.044 755.458 476.308 754.795 476.309Z" fill="white"/>
<path d="M717.795 529.309H698.795C698.132 529.308 697.497 529.044 697.028 528.576C696.56 528.107 696.296 527.472 696.295 526.809V497.809C696.296 497.146 696.56 496.511 697.028 496.042C697.497 495.573 698.132 495.31 698.795 495.309H717.795C718.458 495.31 719.094 495.573 719.562 496.042C720.031 496.511 720.295 497.146 720.295 497.809V526.809C720.295 527.472 720.031 528.107 719.562 528.576C719.094 529.044 718.458 529.308 717.795 529.309Z" fill="white"/>
<path d="M754.795 529.309H735.795C735.132 529.308 734.497 529.044 734.028 528.576C733.56 528.107 733.296 527.472 733.295 526.809V497.809C733.296 497.146 733.56 496.511 734.028 496.042C734.497 495.573 735.132 495.31 735.795 495.309H754.795C755.458 495.31 756.094 495.573 756.562 496.042C757.031 496.511 757.295 497.146 757.295 497.809V526.809C757.295 527.472 757.031 528.107 756.562 528.576C756.094 529.044 755.458 529.308 754.795 529.309Z" fill="white"/>
<path d="M1061.8 574.309H16C15.7348 574.309 15.4804 574.203 15.2929 574.016C15.1054 573.828 15 573.574 15 573.309C15 573.044 15.1054 572.789 15.2929 572.602C15.4804 572.414 15.7348 572.309 16 572.309H1061.8C1062.06 572.309 1062.31 572.414 1062.5 572.602C1062.69 572.789 1062.8 573.044 1062.8 573.309C1062.8 573.574 1062.69 573.828 1062.5 574.016C1062.31 574.203 1062.06 574.309 1061.8 574.309Z" fill="#E6E6E6"/>
<path d="M377.795 609.309H284.795C284.53 609.309 284.276 609.203 284.088 609.016C283.901 608.828 283.795 608.574 283.795 608.309C283.795 608.044 283.901 607.789 284.088 607.602C284.276 607.414 284.53 607.309 284.795 607.309H377.795C378.061 607.309 378.315 607.414 378.502 607.602C378.69 607.789 378.795 608.044 378.795 608.309C378.795 608.574 378.69 608.828 378.502 609.016C378.315 609.203 378.061 609.309 377.795 609.309Z" fill="#E6E6E6"/>
<path d="M608.795 609.309H515.795C515.53 609.309 515.276 609.203 515.088 609.016C514.901 608.828 514.795 608.574 514.795 608.309C514.795 608.044 514.901 607.789 515.088 607.602C515.276 607.414 515.53 607.309 515.795 607.309H608.795C609.061 607.309 609.315 607.414 609.502 607.602C609.69 607.789 609.795 608.044 609.795 608.309C609.795 608.574 609.69 608.828 609.502 609.016C609.315 609.203 609.061 609.309 608.795 609.309Z" fill="#E6E6E6"/>
<path d="M839.795 609.309H746.795C746.53 609.309 746.276 609.203 746.088 609.016C745.901 608.828 745.795 608.574 745.795 608.309C745.795 608.044 745.901 607.789 746.088 607.602C746.276 607.414 746.53 607.309 746.795 607.309H839.795C840.061 607.309 840.315 607.414 840.502 607.602C840.69 607.789 840.795 608.044 840.795 608.309C840.795 608.574 840.69 608.828 840.502 609.016C840.315 609.203 840.061 609.309 839.795 609.309Z" fill="#E6E6E6"/>
<path d="M430.795 501.707C430.795 484.046 416.468 442.137 398.795 442.137C381.122 442.137 366.795 484.046 366.795 501.707C366.795 510.194 370.167 518.334 376.168 524.335C382.169 530.336 390.308 533.707 398.795 533.707C407.282 533.707 415.422 530.336 421.423 524.335C427.424 518.334 430.795 510.194 430.795 501.707Z" fill="#E6E6E6"/>
<path d="M422.795 501.707C422.795 484.046 408.468 442.137 390.795 442.137C373.122 442.137 358.795 484.046 358.795 501.707C358.795 510.194 362.167 518.334 368.168 524.335C374.169 530.336 382.308 533.707 390.795 533.707C399.282 533.707 407.422 530.336 413.423 524.335C419.424 518.334 422.795 510.194 422.795 501.707Z" fill="#F2F2F2"/>
<path d="M391.795 573.258C391.53 573.258 391.276 573.152 391.088 572.965C390.901 572.777 390.795 572.523 390.795 572.258V483.117C390.795 482.852 390.901 482.598 391.088 482.41C391.276 482.223 391.53 482.117 391.795 482.117C392.061 482.117 392.315 482.223 392.502 482.41C392.69 482.598 392.795 482.852 392.795 483.117V572.258C392.795 572.523 392.69 572.777 392.502 572.965C392.315 573.152 392.061 573.258 391.795 573.258Z" fill="#CCCCCC"/>
<path d="M391.795 497.73C391.598 497.73 391.404 497.672 391.24 497.562C391.075 497.452 390.947 497.296 390.872 497.113C390.796 496.93 390.776 496.729 390.815 496.535C390.853 496.341 390.949 496.163 391.088 496.023L404.166 482.945C404.353 482.758 404.608 482.652 404.873 482.652C405.138 482.652 405.393 482.758 405.58 482.945C405.768 483.133 405.873 483.387 405.873 483.652C405.873 483.917 405.768 484.172 405.58 484.359L392.502 497.437C392.41 497.53 392.299 497.604 392.178 497.654C392.057 497.705 391.927 497.731 391.795 497.73Z" fill="#CCCCCC"/>
<path d="M941.795 501.707C941.795 484.046 927.468 442.137 909.795 442.137C892.122 442.137 877.795 484.046 877.795 501.707C877.795 510.194 881.167 518.334 887.168 524.335C893.169 530.336 901.308 533.707 909.795 533.707C918.282 533.707 926.422 530.336 932.423 524.335C938.424 518.334 941.795 510.194 941.795 501.707Z" fill="#E6E6E6"/>
<path d="M933.795 501.707C933.795 484.046 919.468 442.137 901.795 442.137C884.122 442.137 869.795 484.046 869.795 501.707C869.795 510.194 873.167 518.334 879.168 524.335C885.169 530.336 893.308 533.707 901.795 533.707C910.282 533.707 918.422 530.336 924.423 524.335C930.424 518.334 933.795 510.194 933.795 501.707Z" fill="#F2F2F2"/>
<path d="M902.795 573.258C902.53 573.258 902.276 573.152 902.088 572.965C901.901 572.777 901.795 572.523 901.795 572.258V483.117C901.795 482.852 901.901 482.598 902.088 482.41C902.276 482.223 902.53 482.117 902.795 482.117C903.061 482.117 903.315 482.223 903.502 482.41C903.69 482.598 903.795 482.852 903.795 483.117V572.258C903.795 572.523 903.69 572.777 903.502 572.965C903.315 573.152 903.061 573.258 902.795 573.258Z" fill="#CCCCCC"/>
<path d="M902.795 497.73C902.598 497.73 902.404 497.672 902.24 497.562C902.075 497.452 901.947 497.296 901.872 497.113C901.796 496.93 901.776 496.729 901.815 496.535C901.853 496.341 901.948 496.163 902.088 496.023L915.166 482.945C915.353 482.758 915.608 482.652 915.873 482.652C916.138 482.652 916.392 482.758 916.58 482.945C916.767 483.133 916.873 483.387 916.873 483.652C916.873 483.917 916.767 484.172 916.58 484.359L903.502 497.437C903.41 497.53 903.299 497.604 903.178 497.654C903.057 497.705 902.927 497.731 902.795 497.73Z" fill="#CCCCCC"/>
<path d="M571.795 512.809H549.795C549.132 512.808 548.497 512.545 548.028 512.076C547.559 511.607 547.296 510.972 547.295 510.309V488.309C547.296 487.646 547.559 487.01 548.028 486.542C548.497 486.073 549.132 485.809 549.795 485.809H571.795C572.458 485.809 573.093 486.073 573.562 486.542C574.031 487.01 574.294 487.646 574.295 488.309V510.309C574.294 510.972 574.031 511.607 573.562 512.076C573.093 512.545 572.458 512.808 571.795 512.809Z" fill="#3F3D56"/>
<path d="M785.361 523.522C785.601 523.585 785.825 523.7 786.016 523.859C786.207 524.018 786.361 524.217 786.467 524.442C786.573 524.667 786.628 524.912 786.629 525.16C786.63 525.409 786.576 525.655 786.472 525.88L790.82 530.073L787.757 530.76L784.098 526.673C783.73 526.472 783.449 526.144 783.308 525.75C783.166 525.357 783.174 524.925 783.33 524.536C783.486 524.148 783.778 523.83 784.153 523.643C784.527 523.456 784.957 523.413 785.361 523.522Z" fill="#FFB8B8"/>
<path d="M791.475 534.553L786.111 529.521C786.037 529.451 785.978 529.368 785.937 529.275C785.896 529.182 785.873 529.082 785.871 528.981C785.869 528.879 785.888 528.778 785.926 528.684C785.963 528.59 786.019 528.504 786.091 528.432L787.186 527.322C787.316 527.191 787.49 527.111 787.674 527.098C787.859 527.086 788.042 527.14 788.189 527.253L792.684 530.688L795.488 523.886C795.599 523.618 795.764 523.375 795.972 523.173C796.18 522.971 796.428 522.813 796.699 522.711C796.971 522.608 797.26 522.562 797.55 522.575C797.84 522.589 798.124 522.662 798.385 522.79C798.796 522.988 799.131 523.315 799.341 523.721C799.55 524.126 799.622 524.589 799.546 525.039C799.037 528.133 795.954 532.223 794.162 534.385C793.917 534.68 793.587 534.891 793.217 534.99C792.847 535.09 792.455 535.072 792.096 534.939C791.865 534.853 791.654 534.722 791.475 534.553Z" fill="#6C63FF"/>
<path d="M788.465 529.671L784.516 523.944C784.466 523.87 784.446 523.779 784.462 523.691C784.479 523.602 784.529 523.524 784.603 523.473L784.761 523.364C784.798 523.339 784.839 523.321 784.883 523.312C784.926 523.302 784.971 523.302 785.015 523.31C785.058 523.318 785.1 523.334 785.137 523.358C785.174 523.383 785.207 523.414 785.232 523.45L789.181 529.178C789.206 529.215 789.224 529.256 789.233 529.299C789.242 529.343 789.243 529.388 789.235 529.431C789.227 529.475 789.21 529.517 789.186 529.554C789.162 529.591 789.131 529.623 789.094 529.649L788.936 529.758C788.862 529.809 788.771 529.828 788.683 529.812C788.595 529.796 788.516 529.745 788.465 529.671Z" fill="white"/>
<path d="M787.362 529.714L784.084 524.96C783.944 524.757 783.891 524.507 783.936 524.264C783.98 524.022 784.119 523.807 784.322 523.667L784.656 523.437L788.989 529.721L788.655 529.952C788.452 530.091 788.201 530.145 787.959 530.1C787.717 530.056 787.502 529.917 787.362 529.714Z" fill="#3F3D56"/>
<path d="M787.758 570.744L785.699 570.507L785.972 562.492L788.674 562.804L787.758 570.744Z" fill="#FFB8B8"/>
<path d="M788.053 572.801L781.415 572.034L781.424 571.95C781.463 571.611 781.569 571.283 781.735 570.984C781.901 570.686 782.124 570.423 782.392 570.211C782.659 569.999 782.966 569.841 783.295 569.747C783.623 569.654 783.967 569.626 784.306 569.665L788.361 570.133L788.053 572.801Z" fill="#2F2E41"/>
<path d="M811.697 569.222L809.717 569.834L806.416 562.488L809.338 561.585L811.697 569.222Z" fill="#FFB8B8"/>
<path d="M812.795 570.986L806.411 572.958L806.386 572.877C806.285 572.551 806.249 572.208 806.281 571.868C806.313 571.528 806.411 571.197 806.571 570.895C806.73 570.593 806.948 570.325 807.211 570.107C807.474 569.889 807.777 569.725 808.103 569.624L812.003 568.42L812.795 570.986Z" fill="#2F2E41"/>
<path d="M785.459 568.897C785.25 568.832 785.075 568.689 784.969 568.497C784.864 568.305 784.838 568.08 784.896 567.868L786.137 553.583C786.194 552.932 786.399 552.302 786.736 551.741L794.248 539.274L800.97 540.482L801.013 540.5C804.28 542.501 807.181 552.203 809.986 561.586C810.422 563.045 810.873 564.554 811.313 565.996C811.395 566.202 811.393 566.431 811.308 566.636C811.223 566.84 811.061 567.004 810.857 567.091L808.822 567.947C808.629 568.029 808.413 568.036 808.215 567.967C808.017 567.898 807.852 567.758 807.752 567.573L797.289 548.417C797.276 548.393 797.257 548.373 797.234 548.357C797.212 548.342 797.186 548.333 797.159 548.33C797.132 548.327 797.104 548.33 797.079 548.34C797.054 548.349 797.031 548.365 797.014 548.386L790.941 555.258L788.71 568.353L788.701 568.381C788.62 568.569 788.474 568.72 788.291 568.809C788.107 568.897 787.898 568.917 787.701 568.863L785.512 568.904L785.499 568.904L785.459 568.897Z" fill="#2F2E41"/>
<path d="M793.884 540.641L793.842 540.627L793.829 540.584C793.798 540.48 790.725 530.083 793.494 523.455L793.497 523.449C793.578 523.291 795.509 519.58 797.753 519.209L797.813 519.199L798.542 520.563C798.772 520.792 802.72 524.892 800.928 531.938C801.089 532.516 803.269 540.449 802.083 541.634C801.651 541.932 801.126 542.064 800.604 542.005C798.319 541.81 796.064 541.352 793.884 540.641Z" fill="#6C63FF"/>
<path d="M797.291 517.909C800.185 517.909 802.531 515.563 802.531 512.669C802.531 509.775 800.185 507.429 797.291 507.429C794.397 507.429 792.05 509.775 792.05 512.669C792.05 515.563 794.397 517.909 797.291 517.909Z" fill="#2F2E41"/>
<path d="M795.209 517.884C797.502 517.884 799.361 516.025 799.361 513.732C799.361 511.439 797.502 509.581 795.209 509.581C792.916 509.581 791.057 511.439 791.057 513.732C791.057 516.025 792.916 517.884 795.209 517.884Z" fill="#FFB8B8"/>
<path d="M797.881 517.765C797.502 517.899 797.037 518.018 796.739 517.739C796.615 517.579 796.543 517.384 796.531 517.182C796.519 516.979 796.568 516.778 796.673 516.604C796.888 516.262 797.062 515.895 797.192 515.512C797.23 515.225 797.194 514.932 797.086 514.662C796.978 514.393 796.802 514.156 796.575 513.975C796.125 513.631 795.615 513.375 795.071 513.218L792.165 512.185C791.41 512.007 790.739 511.572 790.268 510.956C790.025 510.442 789.983 509.856 790.151 509.313C790.319 508.77 790.683 508.309 791.173 508.022C791.667 507.773 792.21 507.638 792.763 507.627C793.315 507.616 793.864 507.73 794.367 507.959C794.921 508.217 795.489 508.445 796.069 508.64C797.232 508.947 798.556 508.671 799.578 509.328C800.01 509.655 800.352 510.085 800.575 510.579C800.797 511.073 800.892 511.615 800.851 512.155C800.764 513.241 800.474 514.301 799.996 515.281C799.775 515.885 799.454 516.447 799.048 516.946C798.849 517.19 798.595 517.382 798.306 517.506C798.017 517.631 797.703 517.684 797.389 517.661L797.881 517.765Z" fill="#2F2E41"/>
<path d="M801.686 513.514C803.553 513.514 805.066 512 805.066 510.133C805.066 508.266 803.553 506.752 801.686 506.752C799.818 506.752 798.305 508.266 798.305 510.133C798.305 512 799.818 513.514 801.686 513.514Z" fill="#2F2E41"/>
<path d="M796.107 515.035C796.107 514.974 796.124 514.914 796.155 514.861C796.187 514.808 796.232 514.765 796.286 514.737C796.341 514.708 796.401 514.694 796.463 514.697C796.524 514.7 796.583 514.72 796.634 514.754C796.685 514.789 796.726 514.836 796.752 514.892C796.778 514.947 796.788 515.009 796.782 515.07C796.775 515.131 796.752 515.189 796.716 515.238C796.679 515.287 796.629 515.325 796.572 515.348V516.092C796.572 516.108 796.569 516.125 796.563 516.141C796.557 516.156 796.547 516.17 796.535 516.182C796.524 516.194 796.51 516.203 796.494 516.21C796.479 516.216 796.462 516.22 796.445 516.22C796.429 516.22 796.412 516.216 796.397 516.21C796.381 516.203 796.367 516.194 796.355 516.182C796.344 516.17 796.334 516.156 796.328 516.141C796.322 516.125 796.318 516.108 796.319 516.092V515.348C796.256 515.323 796.203 515.28 796.165 515.224C796.128 515.168 796.107 515.103 796.107 515.035Z" fill="white"/>
<path d="M785.567 527.071C785.814 527.046 786.064 527.076 786.298 527.158C786.533 527.241 786.746 527.373 786.924 527.547C787.101 527.721 787.239 527.932 787.326 528.164C787.414 528.397 787.449 528.646 787.43 528.894L792.967 531.308L790.335 533.019L785.481 530.464C785.067 530.404 784.689 530.195 784.419 529.875C784.149 529.555 784.006 529.148 784.016 528.729C784.027 528.311 784.191 527.911 784.476 527.605C784.762 527.3 785.15 527.11 785.567 527.071Z" fill="#FFB8B8"/>
<path d="M795.142 535.279L788.361 532.432C788.267 532.392 788.182 532.335 788.111 532.262C788.04 532.189 787.985 532.103 787.947 532.009C787.91 531.914 787.892 531.813 787.895 531.712C787.897 531.61 787.92 531.51 787.962 531.418L788.602 529.996C788.678 529.828 788.813 529.693 788.981 529.616C789.15 529.54 789.34 529.527 789.517 529.581L794.928 531.234L795.186 523.882C795.196 523.592 795.266 523.307 795.39 523.045C795.515 522.783 795.692 522.549 795.911 522.358C796.129 522.167 796.385 522.023 796.661 521.935C796.938 521.846 797.23 521.816 797.518 521.845C797.973 521.888 798.401 522.077 798.739 522.384C799.076 522.691 799.305 523.1 799.391 523.548C799.992 526.625 798.528 531.533 797.602 534.185C797.475 534.546 797.239 534.86 796.927 535.082C796.615 535.304 796.242 535.423 795.859 535.424C795.613 535.424 795.369 535.374 795.142 535.279Z" fill="#6C63FF"/>
<path d="M99.7927 533.539H89.4067V530.386C92.6887 528.102 95.5965 528.301 99.4218 530.571L99.7927 533.539Z" fill="#6C63FF"/>
<path d="M87.0019 589.541H84.7279L84.3879 580.771H87.0019V589.541Z" fill="#FFB8B8"/>
<path d="M87.5816 591.745L80.2501 591.745V591.652C80.2501 591.277 80.3239 590.906 80.4673 590.56C80.6107 590.214 80.8209 589.899 81.0859 589.634C81.3509 589.369 81.6655 589.159 82.0117 589.016C82.3579 588.872 82.729 588.798 83.1038 588.798L87.5817 588.799L87.5816 591.745Z" fill="#2F2E41"/>
<path d="M99.809 589.541H102.082L102.422 580.771H99.808L99.809 589.541Z" fill="#FFB8B8"/>
<path d="M99.2288 588.799L103.707 588.798C104.081 588.798 104.453 588.872 104.799 589.016C105.145 589.159 105.46 589.369 105.725 589.634C105.99 589.899 106.2 590.214 106.343 590.56C106.487 590.906 106.56 591.277 106.56 591.652V591.745L99.2289 591.745L99.2288 588.799Z" fill="#2F2E41"/>
<path d="M99.8685 588.417C99.6788 588.416 99.4949 588.351 99.3468 588.233C99.1988 588.114 99.0954 587.949 99.0535 587.764L93.4179 563.182C93.4056 563.12 93.3716 563.064 93.3219 563.024C93.2722 562.984 93.2101 562.963 93.1464 562.965H93.145C93.0811 562.963 93.0188 562.985 92.9693 563.025C92.9197 563.066 92.886 563.122 92.8742 563.185L87.6989 587.601C87.6585 587.787 87.5556 587.955 87.4071 588.075C87.2586 588.195 87.0735 588.261 86.8824 588.262H84.4171C84.3034 588.262 84.1908 588.239 84.0864 588.194C83.9819 588.149 83.8878 588.083 83.8098 588C83.7318 587.917 83.6715 587.819 83.6327 587.712C83.5938 587.605 83.5773 587.492 83.584 587.378L85.4202 556.432L86.1591 556.214L86.173 556.214L100.687 556.341L103.778 587.253C103.789 587.363 103.778 587.474 103.745 587.58C103.712 587.686 103.659 587.784 103.588 587.869C103.517 587.954 103.43 588.024 103.331 588.075C103.233 588.126 103.125 588.157 103.015 588.165L99.9353 588.414C99.9129 588.416 99.8906 588.417 99.8685 588.417Z" fill="#2F2E41"/>
<path d="M93.8748 527.888C96.3905 527.888 98.4299 525.849 98.4299 523.333C98.4299 520.817 96.3905 518.778 93.8748 518.778C91.359 518.778 89.3196 520.817 89.3196 523.333C89.3196 525.849 91.359 527.888 93.8748 527.888Z" fill="#FFB8B8"/>
<path d="M91.0842 559.825C90.2851 559.835 89.4891 559.723 88.7237 559.493C88.043 559.288 87.4115 558.946 86.868 558.487C86.3246 558.029 85.8807 557.464 85.5637 556.827C85.4633 556.636 85.441 556.413 85.5016 556.205C86.004 554.49 88.4317 545.578 86.8827 538.493C86.6641 537.509 86.6459 536.49 86.8293 535.499C87.0127 534.507 87.3938 533.563 87.9501 532.722C88.4934 531.888 89.1991 531.172 90.0253 530.616C90.8514 530.06 91.781 529.677 92.7586 529.488C93.0155 529.438 93.2738 529.397 93.5263 529.365C94.6069 529.232 95.7036 529.34 96.7379 529.68C97.7721 530.02 98.7184 530.585 99.5089 531.334C100.323 532.097 100.958 533.031 101.369 534.069C101.78 535.106 101.956 536.222 101.886 537.335L100.695 556.439C100.687 556.582 100.642 556.721 100.564 556.841C100.486 556.962 100.378 557.06 100.251 557.126C98.8796 557.844 94.761 559.825 91.0842 559.825Z" fill="#3F3D56"/>
<path d="M99.0206 519.98C98.5474 518.791 97.6807 517.8 96.5651 517.173C95.4494 516.545 94.1524 516.32 92.8905 516.533L94.3268 517.694C92.5423 517.754 90.6639 517.626 89.3898 518.877C89.7955 518.866 90.3271 519.733 90.7327 519.722C90.3531 519.749 89.9876 519.877 89.6744 520.093C89.3611 520.309 89.1115 520.605 88.9517 520.95C88.6415 521.65 88.5689 522.431 88.7451 523.175C89.2047 524.271 89.7393 525.333 90.345 526.354C90.2921 524.542 93.8594 520.22 95.6013 520.671C94.7163 521 93.9483 521.583 93.3942 522.347C94.5794 521.749 95.9197 521.53 97.2336 521.719C97.5336 521.788 97.8431 521.805 98.1489 521.77C98.3363 521.733 98.5111 521.649 98.6565 521.525C98.802 521.401 98.9132 521.242 98.9797 521.063C99.0461 520.883 99.0655 520.69 99.0361 520.502C99.0066 520.313 98.9292 520.135 98.8113 519.984L99.0206 519.98Z" fill="#2F2E41"/>
<path d="M90.7704 558.678C90.6554 558.678 90.5416 558.654 90.4362 558.608L81.7935 554.835C81.6099 554.757 81.4609 554.614 81.3739 554.434C81.2869 554.255 81.2677 554.05 81.32 553.857L87.0415 532.243C87.1479 531.841 87.3334 531.464 87.5872 531.134C87.841 530.805 88.158 530.529 88.5197 530.323C88.8814 530.118 89.2804 529.986 89.6934 529.937C90.1065 529.888 90.5253 529.921 90.9252 530.035L93.213 530.688L91.6025 557.892C91.5942 558.026 91.5537 558.157 91.4844 558.272C91.4152 558.387 91.3191 558.484 91.2045 558.554C91.0741 558.635 90.9238 558.678 90.7704 558.678Z" fill="#6C63FF"/>
<path d="M106.766 553.856L106.386 552.423L105.835 550.338L105.57 549.338L105.019 547.259L101.045 532.242C100.939 531.84 100.753 531.463 100.5 531.133C100.246 530.803 99.9288 530.528 99.567 530.322C99.2053 530.117 98.8061 529.985 98.393 529.936C97.9798 529.887 97.561 529.921 97.161 530.035L94.8743 530.688L96.0074 549.823L96.1243 551.82L96.1985 553.079V553.081L96.3171 555.067L96.4841 557.892C96.4978 558.104 96.5912 558.303 96.7457 558.449C96.9002 558.595 97.1043 558.677 97.3168 558.678C97.4317 558.678 97.5453 558.654 97.6507 558.608L106.293 554.836C106.477 554.757 106.626 554.614 106.713 554.434C106.8 554.255 106.819 554.049 106.766 553.856Z" fill="#6C63FF"/>
<path d="M105.57 549.339L96.124 551.82L96.007 549.823L105.019 547.259L105.57 549.339Z" fill="#CCCCCC"/>
<path d="M106.386 552.423L96.317 555.068L96.198 553.081V553.079L105.835 550.338L106.386 552.423Z" fill="#CCCCCC"/>
<path d="M91.963 550.253L91.846 552.213L82.582 549.454L83.125 547.402L91.963 550.253Z" fill="#CCCCCC"/>
<path d="M91.7699 553.504L82.3169 550.453L81.7729 552.51L91.6549 555.453L91.7699 553.504Z" fill="#CCCCCC"/>
<path d="M82.4813 555.554C82.7631 555.481 83.0254 555.346 83.2496 555.16C83.4739 554.974 83.6546 554.742 83.7792 554.478C83.9037 554.215 83.969 553.928 83.9705 553.636C83.9719 553.345 83.9095 553.057 83.7876 552.793L88.2317 538.841L85.0804 538.181L81.006 551.859C80.5751 552.094 80.2452 552.478 80.0787 552.939C79.9122 553.4 79.9207 553.907 80.1025 554.362C80.2844 554.818 80.627 555.19 81.0654 555.41C81.5038 555.63 82.0076 555.681 82.4813 555.554Z" fill="#FFB8B8"/>
<path d="M88.355 531.982C89.2599 532.074 89.7689 533.092 89.5439 534.358L88.4643 540.438C88.3833 540.893 88.0083 541.254 87.6966 541.176L84.0447 540.263C83.7637 540.193 83.6602 539.794 83.8195 539.394L86.0118 533.895C86.1601 533.375 86.4642 532.913 86.8832 532.571C87.3021 532.229 87.8158 532.023 88.355 531.982Z" fill="#3F3D56"/>
<path d="M93.8579 514.807C95.3996 514.807 96.8807 515.408 97.9876 516.481C99.0945 517.554 99.7402 519.016 99.7881 520.557H100.906C101.004 520.557 101.098 520.596 101.168 520.665C101.237 520.735 101.276 520.829 101.276 520.927V522.411C101.276 522.51 101.237 522.604 101.168 522.673C101.098 522.743 101.004 522.782 100.906 522.782H88.294C88.1957 522.782 88.1013 522.743 88.0317 522.673C87.9622 522.604 87.9231 522.51 87.9231 522.411V520.742C87.9231 519.963 88.0766 519.191 88.3748 518.471C88.6731 517.751 89.1103 517.097 89.6614 516.545C90.2125 515.994 90.8667 515.557 91.5868 515.259C92.3068 514.961 93.0786 514.807 93.8579 514.807Z" fill="#6C63FF"/>
<path d="M94.567 551.493H91.9454C91.8613 551.493 91.7801 551.462 91.7178 551.405C91.6555 551.349 91.6165 551.271 91.6086 551.187L91.0839 545.809H95.4286L94.9038 551.187C94.8959 551.271 94.857 551.349 94.7947 551.405C94.7324 551.462 94.6512 551.493 94.567 551.493Z" fill="#E6E6E6"/>
<path d="M95.4216 546.485H91.0908C91.0011 546.485 90.9151 546.449 90.8517 546.386C90.7882 546.323 90.7525 546.237 90.7524 546.147V545.335C90.7525 545.245 90.7882 545.159 90.8517 545.096C90.9151 545.032 91.0011 544.997 91.0908 544.997H95.4216C95.5113 544.997 95.5973 545.032 95.6607 545.096C95.7242 545.159 95.7598 545.245 95.7599 545.335V546.147C95.7598 546.237 95.7242 546.323 95.6607 546.386C95.5973 546.449 95.5113 546.485 95.4216 546.485Z" fill="#CCCCCC"/>
<path d="M93.3125 548.608C93.4144 548.62 93.5153 548.64 93.6141 548.667L100.596 542.68L100.188 540.483L103.423 539.434L104.523 543.253C104.612 543.561 104.599 543.89 104.485 544.19C104.371 544.49 104.162 544.745 103.891 544.917L95.0487 550.513C95.055 550.908 94.9407 551.296 94.7212 551.625C94.5017 551.953 94.1872 552.208 93.8197 552.353C93.4522 552.499 93.0491 552.529 92.6639 552.44C92.2787 552.351 91.9297 552.147 91.6634 551.855C91.397 551.563 91.2259 551.197 91.1729 550.805C91.1198 550.413 91.1873 550.014 91.3663 549.662C91.5454 549.309 91.8275 549.02 92.1751 548.832C92.5228 548.643 92.9194 548.565 93.3125 548.608Z" fill="#FFB8B8"/>
<path d="M100.614 532.484C101.581 532.214 102.547 532.949 102.87 534.203L104.423 540.217C104.54 540.668 104.314 541.147 103.96 541.198L99.8233 541.793C99.505 541.839 99.2245 541.513 99.2128 541.083L99.0522 535.164C98.9907 534.609 99.1094 534.049 99.3906 533.566C99.6719 533.084 100.101 532.704 100.614 532.484Z" fill="#3F3D56"/>
<path d="M147.64 548.756H144.49C144.389 548.756 144.291 548.719 144.216 548.651C144.142 548.583 144.095 548.49 144.085 548.389L143.455 541.927H148.675L148.044 548.389C148.035 548.49 147.988 548.583 147.913 548.651C147.838 548.719 147.741 548.756 147.64 548.756Z" fill="#E6E6E6"/>
<path d="M148.666 542.74H143.463C143.355 542.74 143.252 542.697 143.176 542.621C143.1 542.544 143.057 542.441 143.057 542.333V541.358C143.057 541.25 143.1 541.147 143.176 541.07C143.252 540.994 143.355 540.951 143.463 540.951H148.666C148.774 540.951 148.877 540.994 148.954 541.07C149.03 541.147 149.073 541.25 149.073 541.358V542.333C149.073 542.441 149.03 542.544 148.954 542.621C148.877 542.697 148.774 542.74 148.666 542.74Z" fill="#CCCCCC"/>
<path d="M178.585 586.706C176.296 583.662 174.487 580.286 173.22 576.694C173.147 576.479 173.152 576.246 173.235 576.034C173.318 575.823 173.473 575.648 173.673 575.54L181.504 571.344C181.631 571.276 181.771 571.237 181.915 571.231C182.059 571.225 182.202 571.253 182.334 571.31C182.468 571.369 182.588 571.457 182.683 571.568C182.778 571.68 182.846 571.811 182.883 571.953C183.794 575.414 185.507 578.611 187.884 581.287C187.982 581.396 188.054 581.526 188.094 581.667C188.134 581.808 188.141 581.956 188.115 582.1C188.091 582.242 188.034 582.376 187.949 582.492C187.865 582.609 187.755 582.705 187.628 582.772L179.796 586.968C179.596 587.075 179.364 587.107 179.142 587.059C178.921 587.011 178.723 586.886 178.585 586.706Z" fill="#CCCCCC"/>
<path d="M179.119 586.305C179.161 586.357 179.22 586.393 179.286 586.407C179.352 586.421 179.421 586.411 179.481 586.379L187.312 582.183C187.35 582.163 187.383 582.135 187.408 582.1C187.433 582.065 187.45 582.025 187.457 581.983C187.465 581.939 187.463 581.893 187.451 581.849C187.438 581.805 187.416 581.765 187.385 581.732C184.938 578.977 183.174 575.685 182.236 572.123C182.225 572.079 182.204 572.038 182.175 572.003C182.146 571.968 182.109 571.941 182.067 571.923C182.028 571.906 181.985 571.897 181.942 571.899C181.899 571.901 181.857 571.913 181.82 571.933L173.989 576.129C173.929 576.161 173.883 576.213 173.858 576.276C173.833 576.338 173.83 576.408 173.851 576.472C175.095 579.999 176.872 583.315 179.119 586.305Z" fill="white"/>
<path d="M182.018 577.332L177.753 579.215C177.591 579.287 177.407 579.291 177.242 579.227C177.076 579.163 176.943 579.036 176.872 578.874L176.766 578.635C176.695 578.472 176.691 578.289 176.755 578.123C176.819 577.958 176.946 577.825 177.108 577.753L181.373 575.87C181.535 575.799 181.719 575.795 181.884 575.859C182.049 575.923 182.183 576.05 182.254 576.212L182.36 576.451C182.431 576.613 182.435 576.797 182.371 576.962C182.307 577.128 182.18 577.261 182.018 577.332Z" fill="#CCCCCC"/>
<path d="M183.578 580.229L179.313 582.112C179.151 582.183 178.967 582.188 178.801 582.123C178.636 582.059 178.503 581.932 178.431 581.77L178.326 581.531C178.254 581.369 178.25 581.185 178.314 581.02C178.378 580.855 178.505 580.722 178.667 580.65L182.933 578.767C183.095 578.696 183.279 578.692 183.444 578.756C183.609 578.82 183.742 578.947 183.814 579.109L183.92 579.348C183.991 579.51 183.995 579.694 183.931 579.859C183.867 580.024 183.74 580.157 183.578 580.229Z" fill="#CCCCCC"/>
<path d="M173.575 577.815C173.28 577.626 173.031 577.375 172.845 577.079C172.658 576.782 172.539 576.449 172.495 576.102C172.451 575.755 172.484 575.402 172.591 575.069C172.698 574.736 172.877 574.43 173.115 574.174L171.316 548.648L176.498 549.15L176.64 574.148C177.044 574.576 177.278 575.138 177.295 575.727C177.313 576.316 177.114 576.891 176.736 577.343C176.358 577.795 175.828 578.093 175.245 578.18C174.663 578.267 174.068 578.137 173.575 577.815Z" fill="#A0616A"/>
<path d="M172.489 557.225C172.368 557.138 172.268 557.024 172.196 556.893C172.124 556.762 172.083 556.616 172.075 556.467L171.695 549.587C171.658 548.905 171.874 548.234 172.302 547.702C172.73 547.171 173.34 546.816 174.014 546.708C174.688 546.599 175.378 546.744 175.952 547.114C176.526 547.484 176.942 548.053 177.12 548.712L178.788 554.863C178.857 555.12 178.822 555.393 178.69 555.624C178.558 555.855 178.339 556.023 178.083 556.093L173.339 557.379C173.195 557.419 173.043 557.425 172.896 557.399C172.749 557.372 172.61 557.312 172.489 557.225Z" fill="#3F3D56"/>
<path d="M163.658 609.198L160.927 609.197L159.627 598.661H163.659L163.658 609.198Z" fill="#A0616A"/>
<path d="M158.365 608.417H164.244V611.734H155.658V611.124C155.658 610.769 155.728 610.417 155.864 610.088C156 609.76 156.2 609.461 156.451 609.21C156.703 608.959 157.001 608.759 157.329 608.623C157.658 608.487 158.01 608.417 158.365 608.417Z" fill="#2F2E41"/>
<path d="M173.908 609.198L171.177 609.197L169.877 598.661H173.909L173.908 609.198Z" fill="#A0616A"/>
<path d="M168.615 608.417H174.494V611.734H165.908V611.124C165.908 610.769 165.978 610.417 166.114 610.088C166.25 609.76 166.45 609.461 166.701 609.21C166.952 608.959 167.251 608.759 167.579 608.623C167.908 608.487 168.26 608.417 168.615 608.417Z" fill="#2F2E41"/>
<path d="M163.529 603.889L160.522 603.746C160.266 603.734 160.024 603.624 159.847 603.439C159.669 603.254 159.569 603.008 159.567 602.751C158.774 590.514 157.676 577.392 159.357 572.323C159.356 572.179 159.386 572.036 159.446 571.904C159.505 571.773 159.592 571.655 159.701 571.56C159.81 571.465 159.938 571.395 160.077 571.354C160.215 571.314 160.361 571.303 160.504 571.324L172.535 573.07C172.773 573.104 172.99 573.222 173.148 573.402C173.306 573.583 173.393 573.815 173.394 574.055C174.93 580.057 174.999 590.941 174.941 602.25C174.942 602.382 174.917 602.513 174.867 602.636C174.817 602.759 174.743 602.87 174.65 602.964C174.557 603.058 174.446 603.132 174.324 603.183C174.202 603.234 174.071 603.26 173.938 603.26H170.696C170.457 603.261 170.225 603.176 170.044 603.021C169.862 602.865 169.742 602.65 169.706 602.413L167.705 589.697C167.676 589.511 167.581 589.342 167.436 589.221C167.292 589.1 167.109 589.035 166.921 589.039C166.732 589.042 166.552 589.114 166.412 589.24C166.272 589.366 166.183 589.539 166.161 589.726L164.573 603.007C164.543 603.25 164.425 603.474 164.242 603.637C164.059 603.799 163.822 603.89 163.577 603.89C163.561 603.89 163.545 603.89 163.529 603.889Z" fill="#2F2E41"/>
<path d="M165.646 574.057C163.89 573.025 161.944 572.359 159.924 572.097C159.792 572.084 159.663 572.044 159.546 571.98C159.429 571.916 159.326 571.829 159.244 571.724C159.16 571.618 159.098 571.497 159.063 571.366C159.027 571.236 159.018 571.1 159.037 570.966L161.919 549.564C162.085 548.312 162.569 547.123 163.324 546.111C164.079 545.098 165.081 544.296 166.234 543.78C167.35 543.267 168.579 543.048 169.803 543.144C171.028 543.24 172.207 543.648 173.23 544.328C173.328 544.394 173.425 544.461 173.52 544.53C174.698 545.392 175.594 546.584 176.095 547.955C176.596 549.326 176.68 550.815 176.336 552.233C174.568 559.465 173.961 571.321 173.857 573.624C173.849 573.821 173.783 574.01 173.667 574.169C173.552 574.328 173.391 574.449 173.207 574.517C172.119 574.912 170.972 575.116 169.814 575.121C168.357 575.129 166.922 574.763 165.646 574.057Z" fill="#3F3D56"/>
<path d="M168.058 540.874C171.08 540.874 173.53 538.424 173.53 535.401C173.53 532.379 171.08 529.928 168.058 529.928C165.035 529.928 162.585 532.379 162.585 535.401C162.585 538.424 165.035 540.874 168.058 540.874Z" fill="#A0616A"/>
<path d="M171.931 539.731C171.702 539.978 171.407 540.154 171.082 540.239C170.756 540.324 170.413 540.315 170.093 540.212C169.772 540.108 169.488 539.916 169.273 539.657C169.059 539.398 168.922 539.083 168.88 538.749C168.87 538.634 168.871 538.518 168.883 538.402C169.082 537.769 169.202 537.114 169.241 536.452C169.22 536.279 169.155 536.114 169.053 535.973C168.24 534.884 166.33 536.46 165.562 535.474C165.091 534.869 165.645 533.917 165.283 533.241C164.807 532.349 163.394 532.789 162.508 532.301C161.523 531.757 161.582 530.245 162.231 529.325C162.653 528.782 163.19 528.338 163.803 528.026C164.416 527.714 165.091 527.541 165.779 527.519C167.156 527.487 168.524 527.754 169.788 528.301C171.281 528.787 172.598 529.7 173.576 530.928C174.082 531.733 174.403 532.64 174.515 533.585C174.627 534.529 174.528 535.486 174.224 536.388C173.689 537.643 172.909 538.78 171.931 539.731Z" fill="#2F2E41"/>
<path d="M176.265 545.052C176.169 544.602 175.347 543.987 174.17 543.485C172.279 542.719 170.234 542.411 168.201 542.585C166.168 542.759 164.205 543.411 162.472 544.488C162.351 544.495 162.236 544.541 162.143 544.619C162.051 544.698 161.987 544.804 161.962 544.923L158.004 562.425L157.49 564.705L157.149 566.213L156.634 568.486L156.36 569.7C156.342 569.778 156.342 569.859 156.358 569.936C156.374 570.014 156.406 570.088 156.453 570.152C156.5 570.217 156.56 570.27 156.629 570.31C156.699 570.349 156.775 570.373 156.855 570.38L173.943 571.855C173.958 571.855 173.976 571.857 173.992 571.857C174.133 571.856 174.268 571.802 174.371 571.705C174.473 571.609 174.535 571.477 174.545 571.336L174.707 568.86L174.881 566.213L174.957 565.066L175.128 562.425L176.267 545.081V545.065L176.265 545.052Z" fill="#6C63FF"/>
<path d="M148.226 546.153C148.253 546.274 148.271 546.396 148.279 546.519L157.851 552.041L160.177 550.701L162.658 553.948L157.681 557.496L146.76 548.881C146.315 549.046 145.83 549.071 145.37 548.954C144.91 548.836 144.496 548.581 144.185 548.223C143.873 547.865 143.678 547.42 143.625 546.948C143.572 546.476 143.664 545.999 143.889 545.581C144.113 545.163 144.46 544.822 144.883 544.606C145.305 544.39 145.784 544.307 146.255 544.369C146.726 544.431 147.166 544.635 147.518 544.954C147.87 545.273 148.117 545.691 148.226 546.153Z" fill="#A0616A"/>
<path d="M158.193 551.571C158.177 551.423 158.194 551.272 158.244 551.132C158.294 550.991 158.375 550.863 158.481 550.757L163.353 545.884C163.835 545.402 164.48 545.115 165.161 545.079C165.843 545.043 166.514 545.261 167.045 545.691C167.575 546.12 167.928 546.731 168.035 547.405C168.142 548.079 167.995 548.769 167.624 549.342L164.154 554.688C164.009 554.911 163.782 555.067 163.522 555.122C163.262 555.178 162.991 555.128 162.767 554.983L158.644 552.307C158.519 552.226 158.413 552.118 158.335 551.991C158.257 551.863 158.208 551.72 158.193 551.571Z" fill="#3F3D56"/>
<path d="M175.128 562.425L174.957 565.066L157.489 564.705L158.004 562.425H175.128Z" fill="#CCCCCC"/>
<path d="M174.881 566.213L174.707 568.86L156.634 568.486L157.149 566.213H174.881Z" fill="#CCCCCC"/>
<path d="M168.165 524.768C166.313 524.768 164.533 525.489 163.203 526.779C161.874 528.068 161.098 529.824 161.04 531.676H159.698C159.579 531.676 159.466 531.723 159.382 531.806C159.299 531.89 159.252 532.003 159.252 532.121V533.904C159.252 534.022 159.299 534.135 159.382 534.219C159.466 534.303 159.579 534.349 159.698 534.349H174.85C174.968 534.349 175.081 534.303 175.165 534.219C175.248 534.135 175.295 534.022 175.295 533.904V531.898C175.295 530.962 175.111 530.035 174.752 529.17C174.394 528.305 173.869 527.519 173.207 526.856C172.545 526.194 171.759 525.669 170.894 525.311C170.028 524.952 169.101 524.768 168.165 524.768Z" fill="#6C63FF"/>
<path d="M208.295 597.309H206.767C206.757 597.124 204.705 592.309 204.705 592.309L203.465 589.309L202.645 587.309L201.405 584.309L199.985 580.859C199.949 580.703 199.861 580.564 199.736 580.465C199.61 580.366 199.455 580.312 199.295 580.312C199.135 580.312 198.98 580.366 198.855 580.465C198.73 580.564 198.642 580.703 198.605 580.859L197.185 584.309L195.945 587.309L195.125 589.309L193.885 592.309C193.885 592.309 191.833 597.124 191.824 597.309H190.295C189.897 597.309 189.516 597.467 189.235 597.748C188.953 598.03 188.795 598.411 188.795 598.809C188.795 599.207 188.953 599.588 189.235 599.87C189.516 600.151 189.897 600.309 190.295 600.309H208.295C208.693 600.309 209.075 600.151 209.356 599.87C209.637 599.588 209.795 599.207 209.795 598.809C209.795 598.411 209.637 598.03 209.356 597.748C209.075 597.467 208.693 597.309 208.295 597.309Z" fill="#FF6584"/>
<path d="M207.295 623.309H206.703C206.757 623.181 204.125 616.449 204.125 616.449L202.545 612.599L201.485 610.019L199.905 606.169L198.185 601.999C198.137 601.802 198.024 601.627 197.864 601.502C197.705 601.377 197.508 601.309 197.305 601.309C197.103 601.309 196.906 601.377 196.746 601.502C196.587 601.627 196.474 601.802 196.425 601.999L194.705 606.169L193.125 610.019L192.055 612.599L190.475 616.449C190.475 616.449 187.853 623.181 187.908 623.309H187.295C186.897 623.309 186.516 623.467 186.235 623.748C185.953 624.029 185.795 624.411 185.795 624.809C185.795 625.207 185.953 625.588 186.235 625.87C186.516 626.151 186.897 626.309 187.295 626.309H207.295C207.693 626.309 208.075 626.151 208.356 625.87C208.637 625.588 208.795 625.207 208.795 624.809C208.795 624.411 208.637 624.029 208.356 623.748C208.075 623.467 207.693 623.309 207.295 623.309Z" fill="#FF6584"/>
<path d="M202.645 587.309H195.945L197.185 584.309H201.405L202.645 587.309Z" fill="#F2F2F2"/>
<path d="M204.705 592.309H193.885L195.125 589.309H203.465L204.705 592.309Z" fill="#F2F2F2"/>
<path d="M201.485 610.019H193.125L194.705 606.169H199.905L201.485 610.019Z" fill="#F2F2F2"/>
<path d="M204.125 616.449H190.475L192.055 612.599H202.545L204.125 616.449Z" fill="#F2F2F2"/>
<path d="M427.98 540.055C428.134 539.902 428.254 539.718 428.329 539.514C428.404 539.31 428.434 539.092 428.416 538.876C428.398 538.66 428.333 538.45 428.225 538.261C428.117 538.073 427.969 537.91 427.792 537.785L427.042 532.839L423.96 533.809L425.648 538.221C425.458 538.534 425.388 538.905 425.453 539.265C425.518 539.624 425.712 539.948 426 540.174C426.287 540.4 426.647 540.513 427.012 540.491C427.377 540.469 427.722 540.314 427.98 540.055Z" fill="#FFB8B8"/>
<path d="M424.805 537.728L422.904 528.85C422.719 527.999 422.755 527.116 423.01 526.283C423.264 525.451 423.727 524.698 424.356 524.096C426.789 521.751 429.917 518.795 430.997 518.031C432.011 517.308 433.238 516.946 434.482 517.002L434.508 517.005L436.143 518.55L432.581 524.415L427.173 527.803L427.775 536.505L424.805 537.728Z" fill="#6C63FF"/>
<path d="M431.463 525.663H423.485C423.14 525.663 422.86 525.943 422.86 526.289C422.86 526.635 423.14 526.915 423.485 526.915H431.463C431.809 526.915 432.089 526.635 432.089 526.289C432.089 525.943 431.809 525.663 431.463 525.663Z" fill="#CCCCCC"/>
<path d="M431.463 539.272H423.485C423.14 539.272 422.86 539.552 422.86 539.898C422.86 540.243 423.14 540.524 423.485 540.524H431.463C431.809 540.524 432.089 540.243 432.089 539.898C432.089 539.552 431.809 539.272 431.463 539.272Z" fill="#CCCCCC"/>
<path d="M427.552 573.373C427.474 573.372 427.399 573.343 427.341 573.29C427.283 573.238 427.248 573.165 427.241 573.087L423.253 526.317C423.249 526.276 423.253 526.234 423.265 526.195C423.278 526.156 423.297 526.119 423.324 526.088C423.35 526.056 423.383 526.03 423.419 526.011C423.456 525.992 423.495 525.98 423.536 525.977C423.577 525.973 423.619 525.977 423.658 525.99C423.697 526.002 423.734 526.022 423.765 526.049C423.797 526.075 423.823 526.107 423.842 526.144C423.861 526.18 423.872 526.22 423.876 526.261L427.548 569.474L431.115 526.262C431.119 526.221 431.13 526.181 431.149 526.144C431.168 526.108 431.194 526.075 431.225 526.049C431.257 526.022 431.293 526.002 431.333 525.99C431.372 525.977 431.413 525.972 431.454 525.976C431.495 525.98 431.535 525.991 431.572 526.01C431.608 526.029 431.641 526.055 431.667 526.087C431.694 526.118 431.714 526.155 431.726 526.194C431.738 526.233 431.743 526.275 431.739 526.316L427.864 573.087C427.857 573.165 427.822 573.237 427.764 573.29C427.706 573.343 427.631 573.372 427.552 573.373Z" fill="#CCCCCC"/>
<path d="M436.505 515.13C438.772 515.13 440.61 513.293 440.61 511.026C440.61 508.759 438.772 506.921 436.505 506.921C434.238 506.921 432.401 508.759 432.401 511.026C432.401 513.293 434.238 515.13 436.505 515.13Z" fill="#FFB8B8"/>
<path d="M424.273 571.497L422.321 570.875L423.792 563.05L426.673 563.968L424.273 571.497Z" fill="#FFB8B8"/>
<path d="M424.164 573.228L417.881 571.225L417.933 571.062C418.132 570.438 418.572 569.918 419.154 569.617C419.737 569.316 420.415 569.258 421.04 569.457L424.967 570.709L424.164 573.228Z" fill="#2F2E41"/>
<path d="M438.475 571.456H436.426L435.451 563.554H438.475V571.456Z" fill="#FFB8B8"/>
<path d="M432.553 573.281H438.836V570.949H434.87C434.255 570.95 433.667 571.194 433.232 571.628C432.798 572.063 432.554 572.652 432.553 573.266V573.281Z" fill="#2F2E41"/>
<path d="M438.415 568.892L437.723 568.789C436.855 568.737 435.996 568.576 435.167 568.311C434.997 568.237 434.986 567.108 435.088 560.763C435.162 556.106 435.256 550.309 435.075 547.197C435.067 547.075 435.019 546.958 434.937 546.866C434.855 546.774 434.744 546.713 434.623 546.692C434.502 546.67 434.377 546.69 434.269 546.749C434.161 546.807 434.075 546.9 434.026 547.013C432.466 550.616 429.848 558.68 428.115 564.017C427.513 565.873 427.037 567.339 426.736 568.218C426.678 568.384 426.56 568.523 426.405 568.606C426.25 568.69 426.069 568.713 425.898 568.671C424.473 568.315 424.568 568.163 422.537 567.638C422.362 567.593 422.21 567.482 422.115 567.328C422.019 567.174 421.986 566.989 422.024 566.812C422.391 565.08 429.112 536.998 429.627 534.328C429.644 534.237 429.68 534.15 429.731 534.072C429.782 533.994 429.848 533.928 429.925 533.876C430.002 533.824 430.089 533.788 430.18 533.769C430.272 533.751 430.365 533.751 430.457 533.769C431.97 534.074 432.89 534.398 434.386 534.71C435.999 535.048 437.668 535.397 439.295 535.723C439.457 535.755 439.603 535.844 439.705 535.974C440.159 536.459 440.717 536.834 441.337 537.07C441.763 537.274 440.798 537.256 441.169 537.55C442.672 538.74 440.51 562.904 439.204 568.362C439.162 568.532 439.058 568.681 438.912 568.78C438.766 568.878 438.589 568.918 438.415 568.892Z" fill="#2F2E41"/>
<path d="M438.255 514.617C438.015 513.601 439.226 511.413 438.987 510.396C438.824 509.707 437.205 510.175 436.827 509.577C436.652 509.269 436.403 509.009 436.104 508.818C435.804 508.628 435.463 508.514 435.109 508.487C434.296 508.478 433.496 509.081 432.726 508.82C432.544 508.73 432.381 508.604 432.248 508.45C432.115 508.297 432.013 508.118 431.95 507.925C431.886 507.732 431.862 507.528 431.877 507.325C431.893 507.122 431.949 506.924 432.042 506.744C432.455 506.025 433.095 505.463 433.861 505.148C435.069 504.41 436.515 504.167 437.898 504.47C438.689 504.777 439.414 505.232 440.033 505.812C440.654 506.272 441.2 506.826 441.651 507.454C442.033 508.108 442.241 508.851 442.253 509.609C442.265 510.367 442.081 511.115 441.72 511.782C440.972 513.112 439.781 514.138 438.354 514.678" fill="#2F2E41"/>
<path d="M428.177 538.279C428.62 537.539 429.292 534.071 430.121 528.252C430.686 524.279 431.178 520.242 431.422 518.18C431.441 518.013 431.502 517.853 431.6 517.717C431.697 517.58 431.828 517.47 431.979 517.397C432.137 517.321 432.295 517.248 432.451 517.18C434.331 516.32 436.417 516.016 438.464 516.303C440.511 516.591 442.433 517.458 444.002 518.803L444.021 518.82L444.025 518.845C444.034 518.891 444.882 523.459 443.145 526.546C441.433 529.591 441.413 537.656 441.413 537.737V537.841L441.313 537.812C438.649 537.051 428.357 538.383 428.254 538.397L428.094 538.418L428.177 538.279Z" fill="#6C63FF"/>
<path d="M443.664 527.697H435.686C435.341 527.697 435.061 527.977 435.061 528.322C435.061 528.668 435.341 528.948 435.686 528.948H443.664C444.01 528.948 444.29 528.668 444.29 528.322C444.29 527.977 444.01 527.697 443.664 527.697Z" fill="#CCCCCC"/>
<path d="M443.664 541.306H435.686C435.341 541.306 435.061 541.586 435.061 541.931C435.061 542.277 435.341 542.557 435.686 542.557H443.664C444.01 542.557 444.29 542.277 444.29 541.931C444.29 541.586 444.01 541.306 443.664 541.306Z" fill="#CCCCCC"/>
<path d="M439.753 573.529C439.675 573.529 439.6 573.5 439.542 573.447C439.485 573.394 439.449 573.322 439.442 573.244L435.454 528.35C435.446 528.267 435.472 528.185 435.525 528.122C435.579 528.058 435.655 528.018 435.738 528.011C435.82 528.003 435.902 528.029 435.966 528.083C436.03 528.136 436.07 528.212 436.077 528.295L439.749 569.63L443.317 528.296C443.32 528.254 443.331 528.214 443.35 528.178C443.369 528.141 443.395 528.109 443.427 528.082C443.458 528.056 443.494 528.035 443.534 528.023C443.573 528.01 443.614 528.006 443.655 528.009C443.696 528.013 443.736 528.025 443.773 528.044C443.809 528.063 443.842 528.089 443.868 528.12C443.895 528.152 443.915 528.188 443.927 528.228C443.939 528.267 443.944 528.308 443.94 528.349L440.065 573.243C440.058 573.321 440.023 573.394 439.965 573.446C439.907 573.499 439.832 573.529 439.753 573.529Z" fill="#CCCCCC"/>
<path d="M437.177 541.504C437.131 541.292 437.131 541.072 437.179 540.86C437.226 540.648 437.32 540.449 437.452 540.277C437.585 540.105 437.754 539.964 437.947 539.865C438.14 539.765 438.352 539.709 438.569 539.7L441.886 535.956L443.946 538.445L440.131 541.232C440.122 541.597 439.979 541.946 439.729 542.213C439.479 542.48 439.139 542.646 438.775 542.68C438.411 542.713 438.047 542.612 437.753 542.395C437.458 542.179 437.254 541.861 437.177 541.504Z" fill="#FFB8B8"/>
<path d="M439.109 538.898L444.342 531.92L441.644 526.137L441.84 519.278L444.052 518.869L444.076 518.881C445.15 519.51 445.984 520.48 446.442 521.638C446.934 522.867 447.953 527.047 448.722 530.338C448.922 531.185 448.902 532.069 448.663 532.906C448.424 533.743 447.975 534.505 447.357 535.118L440.937 541.538L439.109 538.898Z" fill="#6C63FF"/>
<path d="M417.171 571.589L424.331 573.312C424.469 573.349 424.617 573.336 424.747 573.275C424.877 573.215 424.982 573.11 425.043 572.98L431.194 556.627C431.221 556.564 431.235 556.496 431.235 556.428C431.235 556.359 431.221 556.292 431.194 556.229C431.163 556.158 431.118 556.095 431.062 556.042C431.005 555.989 430.939 555.948 430.866 555.922L425.483 553.866C425.398 553.834 425.307 553.819 425.216 553.824C425.125 553.829 425.036 553.854 424.955 553.895C424.885 553.93 424.823 553.98 424.773 554.04C424.724 554.101 424.688 554.172 424.667 554.248L420.868 568.661L420.811 568.665C419.632 568.734 418.511 569.201 417.632 569.99C417.449 570.21 417.314 570.466 417.234 570.741C417.155 571.016 417.133 571.305 417.171 571.589Z" fill="#CCCCCC"/>
<path d="M422.356 562.422L422.323 562.733L428.851 563.424L428.884 563.113L422.356 562.422Z" fill="#B3B3B3"/>
<path d="M421.787 564.999L421.659 565.284L426.912 567.648L427.04 567.363L421.787 564.999Z" fill="#B3B3B3"/>
<path d="M429.571 560.922L423.379 558.871L423.508 558.586L429.699 560.636L429.571 560.922Z" fill="#B3B3B3"/>
<path d="M430.197 559.514L424.005 556.525L424.133 556.239L430.325 559.228L430.197 559.514Z" fill="#B3B3B3"/>
<path d="M421.241 567.448L421.038 567.686L425.502 571.5L425.705 571.262L421.241 567.448Z" fill="#B3B3B3"/>
<path d="M419.973 568.713L419.688 568.842L421.481 572.795L421.766 572.666L419.973 568.713Z" fill="#B3B3B3"/>
<path d="M594.471 541.365C594.206 541.303 593.958 541.184 593.743 541.016C593.529 540.848 593.354 540.635 593.231 540.392C593.108 540.149 593.04 539.882 593.031 539.61C593.022 539.337 593.073 539.067 593.18 538.816L586.312 523.299L590.241 522.31L595.757 537.874C596.166 538.082 596.484 538.432 596.651 538.859C596.818 539.286 596.823 539.76 596.665 540.19C596.506 540.62 596.196 540.978 595.791 541.194C595.387 541.411 594.917 541.471 594.471 541.365Z" fill="#A0616A"/>
<path d="M587.587 528.161C587.477 528.112 587.38 528.04 587.3 527.95C587.221 527.86 587.163 527.753 587.128 527.638L585.927 523.621C585.665 523.065 585.634 522.427 585.842 521.848C586.05 521.269 586.479 520.796 587.036 520.533C587.592 520.271 588.23 520.24 588.809 520.448C589.389 520.656 589.861 521.085 590.124 521.642L592.446 525.149C592.512 525.249 592.556 525.362 592.575 525.481C592.594 525.6 592.586 525.721 592.554 525.836C592.521 525.952 592.464 526.059 592.387 526.151C592.309 526.242 592.213 526.316 592.104 526.367L588.283 528.155C588.174 528.206 588.055 528.233 587.935 528.234C587.815 528.235 587.696 528.21 587.587 528.161Z" fill="#6C63FF"/>
<path d="M601.568 526.16L597.355 529.143C597.301 529.182 597.237 529.203 597.17 529.203C597.103 529.203 597.038 529.182 596.984 529.143L595.846 528.288C595.808 528.26 595.777 528.224 595.755 528.183C595.733 528.142 595.72 528.096 595.718 528.049C595.716 528.002 595.725 527.955 595.743 527.912C595.762 527.869 595.79 527.831 595.825 527.8L599.067 524.909C599.11 524.872 599.161 524.847 599.217 524.836C599.273 524.825 599.33 524.83 599.383 524.848L601.493 525.603C601.547 525.623 601.595 525.657 601.631 525.702C601.667 525.748 601.69 525.802 601.698 525.859C601.706 525.916 601.698 525.974 601.675 526.027C601.652 526.081 601.615 526.126 601.568 526.16Z" fill="#3F3D56"/>
<path d="M601.225 525.878C601.236 525.85 601.235 525.819 601.222 525.792C601.21 525.764 601.188 525.743 601.16 525.732L599.26 525.053C599.241 525.046 599.22 525.044 599.201 525.048C599.181 525.051 599.162 525.06 599.147 525.073L596.223 527.681L596.207 527.698C596.199 527.71 596.193 527.723 596.189 527.737C596.186 527.751 596.186 527.765 596.188 527.78C596.19 527.794 596.196 527.807 596.203 527.819C596.211 527.832 596.221 527.842 596.232 527.85L597.256 528.619C597.275 528.633 597.299 528.641 597.323 528.64C597.346 528.64 597.37 528.632 597.389 528.618L601.185 525.93C601.204 525.917 601.217 525.899 601.225 525.878Z" fill="white"/>
<path d="M586.214 570.628H588.34L589.352 562.427H586.214V570.628Z" fill="#A0616A"/>
<path d="M585.672 569.934L589.859 569.934C590.209 569.934 590.556 570.003 590.88 570.137C591.204 570.271 591.498 570.467 591.746 570.715C591.994 570.963 592.19 571.257 592.324 571.581C592.459 571.905 592.528 572.252 592.528 572.602V572.689L585.672 572.689L585.672 569.934Z" fill="#2F2E41"/>
<path d="M579.103 570.628H581.23L582.241 562.427H579.103V570.628Z" fill="#A0616A"/>
<path d="M578.561 569.934L582.748 569.934C583.099 569.934 583.446 570.003 583.77 570.137C584.093 570.271 584.388 570.467 584.635 570.715C584.883 570.963 585.08 571.257 585.214 571.581C585.348 571.905 585.417 572.252 585.417 572.602V572.689L578.561 572.689L578.561 569.934Z" fill="#2F2E41"/>
<path d="M578.652 568.122C578.507 567.955 578.425 567.742 578.422 567.52C577.915 562.306 579.294 534.895 582.481 532.554L582.501 532.535L591.827 530.925L592.001 531.098C592.014 531.34 593.71 555.367 589.027 567.629C588.97 567.776 588.87 567.901 588.74 567.99C588.611 568.078 588.457 568.125 588.3 568.125H586.438C586.33 568.125 586.224 568.103 586.125 568.06C586.027 568.017 585.938 567.954 585.865 567.875C585.792 567.796 585.736 567.702 585.701 567.601C585.666 567.499 585.652 567.391 585.66 567.284L587.168 544.323C587.173 544.257 587.153 544.192 587.112 544.141C587.071 544.089 587.012 544.055 586.946 544.045C586.881 544.036 586.815 544.051 586.76 544.089C586.706 544.126 586.668 544.183 586.654 544.247L582.409 567.551C582.372 567.715 582.284 567.863 582.157 567.974C582.03 568.084 581.871 568.15 581.704 568.163L579.259 568.345C579.239 568.346 579.22 568.347 579.201 568.347C578.995 568.347 578.798 568.266 578.652 568.122Z" fill="#2F2E41"/>
<path d="M590.925 516.869C593.277 516.869 595.184 514.962 595.184 512.61C595.184 510.257 593.277 508.35 590.925 508.35C588.572 508.35 586.665 510.257 586.665 512.61C586.665 514.962 588.572 516.869 590.925 516.869Z" fill="#A0616A"/>
<path d="M580.665 536.285C580.485 536.101 580.382 535.856 580.376 535.6L582.115 527.456C580.728 521.56 582.575 520.454 584.66 519.337L584.646 519.33L585.517 516.974C585.545 516.869 585.595 516.771 585.664 516.688C585.734 516.605 585.821 516.538 585.92 516.493C586.018 516.447 586.125 516.424 586.234 516.425C586.342 516.426 586.449 516.45 586.547 516.497L590.986 518.856C591.186 518.968 591.334 519.154 591.398 519.374C591.473 519.608 591.468 519.86 591.384 520.09L591.056 520.978C591.904 522.11 593.215 526.589 591.827 528.323L592.874 534.103C592.897 534.316 592.844 534.529 592.726 534.707C592.607 534.885 592.429 535.015 592.224 535.076L581.285 536.479C581.242 536.488 581.199 536.492 581.156 536.492C580.971 536.49 580.795 536.415 580.665 536.285Z" fill="#6C63FF"/>
<path d="M596.591 526.945C596.521 527.011 596.456 527.082 596.398 527.158L587.817 526.565L586.897 524.689L583.884 525.708L585.191 529.188C585.297 529.469 585.49 529.708 585.744 529.869C585.997 530.031 586.295 530.106 586.595 530.083L596.352 529.343C596.568 529.643 596.87 529.87 597.218 529.994C597.567 530.118 597.944 530.134 598.301 530.038C598.658 529.942 598.978 529.739 599.217 529.458C599.456 529.176 599.604 528.828 599.641 528.46C599.677 528.092 599.601 527.722 599.422 527.398C599.243 527.075 598.97 526.813 598.639 526.649C598.308 526.484 597.935 526.425 597.569 526.478C597.203 526.531 596.862 526.694 596.591 526.945Z" fill="#A0616A"/>
<path d="M587.497 526.595L583.757 527.84C583.651 527.875 583.538 527.887 583.426 527.875C583.315 527.863 583.207 527.827 583.111 527.77C583.015 527.712 582.932 527.635 582.868 527.543C582.804 527.45 582.761 527.345 582.742 527.235L582.06 523.365C581.882 522.819 581.927 522.225 582.186 521.713C582.445 521.201 582.897 520.812 583.442 520.633C583.987 520.453 584.581 520.497 585.094 520.755C585.607 521.012 585.996 521.463 586.177 522.008L587.947 525.502C587.997 525.602 588.026 525.712 588.03 525.824C588.034 525.936 588.015 526.048 587.972 526.152C587.929 526.255 587.865 526.348 587.783 526.425C587.701 526.502 587.603 526.559 587.497 526.595Z" fill="#6C63FF"/>
<path d="M588.532 509.246C590.448 509.246 592.001 507.693 592.001 505.777C592.001 503.862 590.448 502.309 588.532 502.309C586.616 502.309 585.063 503.862 585.063 505.777C585.063 507.693 586.616 509.246 588.532 509.246Z" fill="#2F2E41"/>
<path d="M594.957 513.136C595.293 513.203 595.641 513.174 595.961 513.052C596.124 512.96 596.263 512.83 596.367 512.674C596.47 512.517 596.536 512.339 596.557 512.153C597.203 507.859 593.552 508.212 593.12 508.026C592.848 507.866 592.592 507.679 592.357 507.469C591.749 507.131 591.055 506.979 590.362 507.03C589.542 506.954 588.715 507.055 587.938 507.326C587.26 507.644 586.698 508.162 586.326 508.811C585.959 509.458 585.69 510.155 585.527 510.881C585.272 511.702 585.225 512.574 585.392 513.418C585.569 514.048 585.939 514.606 586.449 515.016C586.96 515.425 587.586 515.664 588.239 515.7C588.134 515.195 588.199 514.669 588.423 514.205C588.647 513.74 589.018 513.362 589.478 513.129C590.21 512.769 591.043 512.67 591.839 512.848C592.356 512.952 592.88 513.018 593.406 513.043C593.922 513.062 594.542 513.092 594.957 513.136Z" fill="#2F2E41"/>
<path d="M928.32 571.474C928.323 566.924 930.133 562.561 933.352 559.345C936.571 556.129 940.935 554.322 945.485 554.322C950.035 554.322 954.4 556.129 957.618 559.345C960.837 562.561 962.647 566.924 962.651 571.474" fill="#F2F2F2"/>
<path d="M945.485 571.474C945.362 571.474 945.244 571.425 945.157 571.338C945.07 571.251 945.021 571.133 945.021 571.01V561.964C945.021 561.841 945.07 561.723 945.157 561.636C945.244 561.549 945.362 561.5 945.485 561.5C945.608 561.5 945.726 561.549 945.813 561.636C945.9 561.723 945.949 561.841 945.949 561.964V571.01C945.949 571.133 945.9 571.251 945.813 571.338C945.726 571.425 945.608 571.474 945.485 571.474Z" fill="#CCCCCC"/>
<path d="M945.485 568.366C945.374 568.366 945.267 568.326 945.183 568.254L939.616 563.476C939.569 563.436 939.53 563.388 939.502 563.333C939.474 563.279 939.457 563.219 939.452 563.158C939.448 563.097 939.455 563.036 939.474 562.977C939.493 562.919 939.523 562.865 939.563 562.819C939.603 562.772 939.651 562.734 939.706 562.707C939.761 562.679 939.821 562.663 939.882 562.658C939.943 562.654 940.004 562.662 940.062 562.681C940.12 562.7 940.174 562.731 940.22 562.772L945.787 567.55C945.859 567.611 945.911 567.694 945.934 567.786C945.958 567.877 945.953 567.974 945.92 568.063C945.887 568.152 945.828 568.229 945.75 568.283C945.672 568.337 945.58 568.366 945.485 568.366Z" fill="#CCCCCC"/>
<path d="M981.208 571.474C981.211 566.924 983.021 562.561 986.24 559.345C989.459 556.129 993.823 554.322 998.373 554.322C1002.92 554.322 1007.29 556.129 1010.51 559.345C1013.72 562.561 1015.53 566.924 1015.54 571.474" fill="#F2F2F2"/>
<path d="M998.373 571.474C998.25 571.474 998.132 571.425 998.045 571.338C997.958 571.251 997.909 571.133 997.909 571.01V561.964C997.909 561.841 997.958 561.723 998.045 561.636C998.132 561.549 998.25 561.5 998.373 561.5C998.496 561.5 998.614 561.549 998.701 561.636C998.788 561.723 998.837 561.841 998.837 561.964V571.01C998.837 571.133 998.788 571.251 998.701 571.338C998.614 571.425 998.496 571.474 998.373 571.474Z" fill="#CCCCCC"/>
<path d="M998.373 568.366C998.262 568.366 998.155 568.326 998.071 568.254L992.504 563.476C992.457 563.436 992.418 563.388 992.39 563.333C992.362 563.279 992.345 563.219 992.34 563.158C992.335 563.097 992.342 563.036 992.361 562.977C992.38 562.919 992.41 562.865 992.45 562.818C992.49 562.772 992.539 562.734 992.594 562.706C992.649 562.679 992.708 562.662 992.77 562.658C992.831 562.654 992.892 562.661 992.95 562.681C993.008 562.7 993.062 562.731 993.108 562.772L998.675 567.55C998.747 567.611 998.798 567.694 998.822 567.786C998.846 567.877 998.841 567.974 998.808 568.063C998.775 568.152 998.716 568.229 998.638 568.283C998.56 568.337 998.468 568.366 998.373 568.366Z" fill="#CCCCCC"/>
</g>
<defs>
<clipPath id="clip0_11_532">
<rect width="1047.8" height="450.309" fill="white" transform="translate(15 176)"/>
</clipPath>
</defs>
</svg>
